<?xml version="1.0" standalone="no"?>
<!DOCTYPE svg PUBLIC "-//W3C//DTD SVG 20010904//EN"
 "http://www.w3.org/TR/2001/REC-SVG-20010904/DTD/svg10.dtd">
<svg version="1.0" xmlns="http://www.w3.org/2000/svg"
 width="1900.000000pt" height="1250.000000pt" viewBox="0 0 1900.000000 1250.000000"
 preserveAspectRatio="xMidYMid meet">

<g transform="translate(0.000000,1250.000000) scale(0.100000,-0.100000)"
fill="#000000" stroke="none">
<path d="M799 8603 c-14 -8 -35 -30 -47 -48 -27 -38 -23 -51 37 -145 23 -35
44 -76 48 -90 16 -66 60 -125 218 -287 l166 -171 107 -48 c144 -65 149 -69
182 -133 16 -31 40 -71 54 -90 18 -24 26 -48 26 -75 0 -52 11 -68 52 -81 29
-9 39 -23 77 -102 49 -101 56 -106 153 -123 75 -13 155 -38 185 -57 33 -22 62
-90 83 -201 32 -165 109 -424 133 -450 12 -13 68 -53 124 -88 79 -51 115 -81
160 -137 31 -40 76 -93 99 -118 23 -25 54 -65 70 -90 160 -254 193 -330 213
-499 7 -52 20 -113 31 -137 13 -29 87 -113 226 -255 113 -117 228 -245 255
-284 104 -154 238 -283 437 -421 93 -64 163 -123 262 -223 165 -167 220 -198
296 -170 26 10 27 12 21 80 -3 39 -2 70 3 70 5 0 43 -32 85 -70 64 -60 78 -69
95 -60 13 7 20 23 22 52 4 49 15 56 51 28 21 -17 27 -32 33 -80 4 -40 11 -60
20 -60 20 0 79 56 114 108 26 39 31 54 27 92 -2 25 -10 59 -17 77 -13 29 -12
34 15 72 l28 42 -6 143 c-6 131 -5 146 14 181 24 44 20 58 -35 123 -20 24 -36
50 -36 58 0 9 25 26 57 40 66 29 93 50 93 73 0 8 -43 57 -95 107 -74 73 -100
106 -124 157 -26 59 -33 67 -68 76 -57 16 -113 13 -162 -9 -43 -20 -82 -26
-94 -14 -3 3 4 21 15 40 30 51 19 87 -58 179 -103 124 -102 121 -70 153 41 44
36 83 -21 143 -62 66 -80 74 -224 104 -67 13 -128 30 -137 37 -8 7 -33 40 -54
72 -46 72 -40 86 37 86 66 0 83 16 61 58 -8 15 -22 34 -30 41 -23 19 -21 24
30 50 46 25 74 63 74 100 0 49 -23 71 -117 116 -52 25 -99 45 -105 45 -7 0 -8
-13 -5 -36 8 -47 -16 -70 -80 -79 -26 -4 -56 -9 -66 -12 -26 -7 -21 4 18 38
39 35 53 72 36 93 -7 8 -56 28 -110 46 -102 33 -182 77 -213 120 -10 14 -22
55 -27 91 -5 36 -15 76 -23 88 -14 23 -61 43 -144 61 -63 14 -87 38 -107 110
-25 86 -110 155 -159 129 -21 -12 -21 -18 -2 -131 7 -43 -10 -54 -20 -13 -4
14 -41 54 -87 93 -77 66 -149 152 -149 178 0 23 -50 72 -90 88 -46 18 -64 43
-85 113 -18 62 -51 92 -160 151 -44 23 -127 77 -185 118 -58 42 -136 96 -173
120 -37 25 -70 50 -73 58 -3 7 2 37 12 65 20 62 14 73 -59 97 -70 23 -141 92
-177 171 -30 67 -73 103 -121 103 -14 0 -61 9 -105 21 -64 17 -95 20 -159 15
-44 -4 -113 -10 -152 -13 -82 -6 -84 -6 -175 75 -59 52 -55 51 -188 67 -21 2
-45 -2 -61 -12z"/>
<path d="M8980 7980 c-80 -4 -153 -8 -162 -9 -10 0 -27 -10 -38 -21 -18 -18
-18 -22 -5 -61 21 -57 19 -82 -10 -138 -13 -27 -29 -69 -36 -95 -10 -41 -17
-49 -62 -74 -77 -42 -79 -52 -23 -112 39 -42 47 -56 44 -83 -3 -29 -8 -34 -63
-55 -111 -42 -157 -66 -180 -94 -13 -16 -52 -41 -87 -57 -86 -38 -92 -47 -85
-126 6 -59 4 -66 -16 -80 -12 -8 -43 -15 -70 -15 -89 0 -146 -44 -172 -133
-19 -64 -33 -67 -117 -24 -87 44 -117 46 -193 11 -61 -28 -76 -24 -68 19 5 28
-1 35 -67 84 -108 80 -123 79 -176 -5 -90 -142 -156 -175 -265 -136 -24 8 -71
21 -104 29 -53 13 -61 12 -76 -1 -25 -22 -88 -43 -132 -44 -21 0 -58 -9 -83
-21 -53 -24 -43 -28 -195 87 -145 109 -163 135 -171 244 -2 22 -9 36 -18 38
-8 1 -57 -37 -108 -86 -67 -64 -92 -95 -92 -112 0 -14 -21 -67 -47 -118 -43
-86 -46 -97 -47 -175 -1 -106 6 -126 57 -162 92 -67 111 -138 54 -202 -19 -21
-37 -46 -40 -56 -9 -25 18 -86 57 -127 44 -45 53 -65 71 -147 9 -37 18 -78 20
-90 3 -13 9 -23 13 -23 5 0 37 22 72 49 35 27 72 52 82 54 24 7 54 -32 74 -98
17 -52 16 -55 -4 -103 l-22 -50 30 -97 c33 -108 53 -215 44 -238 -8 -23 13
-90 37 -116 17 -18 29 -22 54 -18 26 4 37 0 54 -19 20 -23 24 -24 180 -24 122
0 167 4 197 16 35 15 39 15 50 -1 7 -10 16 -42 20 -71 8 -66 30 -96 83 -114
35 -11 43 -11 65 3 20 14 44 15 138 11 62 -3 131 -2 153 3 l40 9 8 64 c4 35
10 67 13 70 6 5 41 -32 85 -90 l27 -35 40 23 c52 29 72 29 72 -2 0 -26 33 -56
60 -56 9 0 35 9 58 20 51 25 67 25 99 0 18 -14 41 -20 79 -20 42 0 59 -5 83
-26 17 -14 31 -32 31 -41 0 -8 -12 -48 -26 -89 -14 -41 -22 -78 -19 -84 14
-22 142 -3 210 32 17 9 39 25 49 37 12 13 31 21 51 21 52 0 154 58 228 130 64
63 67 68 67 113 0 53 15 67 74 67 39 0 66 28 66 69 0 38 48 169 70 191 44 44
5 122 -86 176 -17 10 -13 18 51 93 63 74 77 86 161 126 105 50 124 73 124 152
0 67 26 111 94 157 l57 38 -2 72 c-2 61 5 128 27 261 6 36 85 175 107 189 10
7 56 4 139 -7 123 -17 263 -22 292 -11 29 11 17 50 -38 116 -50 60 -66 72
-185 132 -131 67 -195 112 -205 144 -3 10 3 49 14 87 33 116 27 139 -52 217
-42 40 -45 56 -24 116 l15 41 -95 52 c-95 53 -112 69 -71 69 31 0 88 37 94 61
3 12 22 27 44 36 65 26 62 46 -24 161 -41 54 -72 73 -163 97 -60 16 -110 16
-354 5z"/>
<path d="M989 7584 c-7 -9 -28 -23 -47 -32 -64 -31 -64 -44 3 -112 96 -97 112
-104 281 -126 54 -7 94 6 94 31 0 8 -21 29 -47 47 -27 17 -87 72 -135 120 -91
91 -121 106 -149 72z"/>
<path d="M13359 7022 c-80 -93 -99 -129 -99 -181 0 -22 -7 -46 -15 -55 -22
-22 -19 -39 22 -119 29 -57 37 -84 38 -128 0 -46 6 -64 30 -98 58 -81 60 -89
36 -138 -11 -24 -21 -49 -21 -57 0 -28 123 -253 158 -289 61 -62 155 -97 168
-63 7 18 -9 50 -56 106 -49 60 -64 91 -83 178 -9 40 -32 107 -52 149 -19 42
-32 80 -28 84 13 11 136 25 168 19 17 -4 53 -24 80 -45 76 -58 165 -93 165
-66 0 6 -11 31 -25 57 -14 26 -25 56 -25 68 0 40 -27 59 -100 71 -79 12 -110
25 -110 46 0 32 44 87 93 119 53 34 98 103 104 163 7 57 -11 71 -77 65 -39 -4
-59 -13 -95 -44 -25 -21 -65 -54 -88 -72 -43 -34 -65 -76 -66 -124 -1 -15 -6
-39 -11 -54 -10 -25 -12 -26 -27 -11 -9 8 -18 38 -21 66 -5 53 -2 56 72 118
34 28 33 55 -3 134 -37 82 -45 124 -26 143 23 22 18 36 -13 36 -22 0 -40 -15
-93 -78z m91 58 c0 -5 -4 -10 -10 -10 -5 0 -10 5 -10 10 0 6 5 10 10 10 6 0
10 -4 10 -10z"/>
<path d="M1612 7023 c-7 -3 -19 -20 -27 -39 -15 -37 -39 -43 -103 -25 -72 21
-40 -48 56 -121 39 -29 61 -55 77 -92 13 -28 41 -73 62 -101 46 -60 83 -69
139 -35 43 27 84 86 84 120 -1 51 -58 119 -137 163 -49 28 -58 38 -61 64 -4
44 -53 81 -90 66z"/>
<path d="M12341 6978 c-14 -5 -39 -23 -56 -41 -18 -18 -62 -44 -101 -60 -38
-15 -94 -43 -124 -63 -84 -56 -126 -71 -249 -89 -63 -9 -144 -26 -180 -38
-130 -41 -203 -27 -361 73 -61 39 -69 41 -125 38 -43 -3 -70 -10 -93 -27 l-32
-22 -52 45 -51 45 -106 -1 c-125 -1 -141 -7 -141 -51 0 -70 -48 -114 -160
-147 -58 -17 -74 -28 -132 -87 -71 -74 -98 -118 -98 -158 0 -19 -17 -45 -57
-86 -67 -71 -66 -78 22 -126 73 -39 87 -56 74 -92 -21 -55 -104 -168 -151
-204 -27 -21 -54 -50 -59 -65 -11 -26 -7 -124 7 -224 11 -81 -1 -114 -74 -194
-37 -40 -81 -88 -97 -107 -22 -26 -47 -40 -90 -52 -94 -27 -96 -33 -38 -102
61 -70 73 -92 73 -133 0 -42 34 -74 101 -94 60 -17 194 -92 223 -125 18 -20
18 -24 3 -79 -30 -112 -40 -168 -41 -244 -1 -73 -3 -79 -34 -111 -30 -31 -33
-38 -27 -73 6 -32 22 -53 89 -117 44 -42 91 -80 103 -83 36 -9 64 6 79 43 13
29 19 34 37 28 55 -17 113 -17 126 -1 23 27 9 115 -23 142 -31 28 -33 57 -5
109 13 25 23 66 26 110 5 64 2 75 -27 130 l-32 60 22 15 c68 48 74 57 73 100
-1 27 -20 80 -53 149 -27 59 -50 111 -50 116 0 6 28 53 63 105 54 83 69 99
119 125 64 33 77 31 106 -18 14 -22 14 -31 4 -47 -17 -27 -15 -87 4 -145 16
-44 16 -51 0 -102 -10 -32 -15 -66 -11 -82 3 -14 39 -57 79 -96 40 -38 80 -84
89 -102 16 -30 16 -34 -2 -75 -32 -75 -34 -102 -12 -146 33 -65 63 -82 143
-82 80 0 94 6 166 72 30 26 66 51 80 54 85 19 136 41 158 67 34 41 32 72 -7
86 -18 6 -40 11 -50 11 -16 0 -19 8 -19 51 0 48 -2 51 -35 65 -34 14 -34 15
-29 57 6 43 6 43 -50 86 -69 54 -72 71 -12 71 59 0 76 8 76 34 0 38 -44 88
-106 120 -59 31 -59 31 -67 86 -11 82 -26 99 -159 180 -58 36 -55 55 10 69 26
5 95 33 155 61 79 38 119 64 151 98 24 26 69 75 100 109 32 34 74 69 93 78 34
16 39 16 92 0 75 -22 98 -18 134 28 24 29 31 47 31 85 l1 47 -45 5 c-25 3 -65
16 -89 29 -52 27 -97 25 -175 -9 l-48 -20 22 -37 21 -36 -55 6 c-57 6 -138 -9
-216 -38 -38 -14 -67 -16 -177 -12 -131 6 -132 6 -151 -18 -13 -16 -22 -49
-26 -95 l-7 -71 -67 7 c-73 7 -102 18 -102 38 0 7 7 34 17 61 16 48 16 49 -7
67 -16 13 -39 18 -81 18 -58 0 -59 0 -85 42 -27 42 -27 44 -15 116 10 59 10
87 0 137 -13 69 -12 72 71 194 51 74 104 86 205 47 49 -19 157 -20 208 -1 34
12 46 11 102 -5 52 -15 77 -17 134 -9 44 5 91 5 123 -1 28 -6 93 -11 144 -11
101 -2 112 -8 159 -81 21 -33 38 -34 107 -8 42 16 77 20 171 20 107 0 122 2
169 26 108 55 138 91 138 167 0 36 5 47 30 65 16 12 34 22 40 22 34 0 69 32
84 78 9 26 27 63 40 83 34 50 43 119 19 141 -29 26 -65 37 -92 26z"/>
<path d="M15144 6056 c-63 -20 -119 -55 -138 -87 -15 -25 -20 -27 -42 -19 -34
13 -110 13 -137 -1 -64 -33 -83 -85 -56 -156 9 -24 7 -30 -14 -48 -13 -11 -39
-28 -56 -38 -54 -29 -34 -41 71 -47 119 -6 124 -10 190 -147 28 -60 59 -110
73 -119 13 -9 68 -29 122 -46 86 -26 108 -29 178 -24 44 3 144 9 223 12 138 7
142 6 142 -14 0 -15 -59 -82 -73 -82 -2 0 -20 9 -42 20 -22 11 -59 20 -82 20
-46 0 -43 3 -73 -78 -17 -44 -40 -55 -105 -47 -38 5 -77 21 -130 52 -62 37
-78 43 -90 33 -8 -7 -15 -22 -15 -34 0 -24 -26 -56 -65 -82 -30 -20 -32 -43
-5 -72 18 -19 32 -22 90 -22 37 0 76 -3 84 -6 17 -7 116 -120 116 -133 0 -5
-13 -25 -30 -46 -33 -41 -37 -70 -17 -100 7 -11 21 -41 30 -66 10 -25 29 -56
42 -69 l25 -24 98 33 c113 38 128 50 143 105 6 23 18 49 26 59 30 32 55 20
133 -63 l75 -80 62 0 c46 0 66 -4 75 -16 39 -49 81 -82 136 -103 66 -26 89
-28 169 -16 44 7 57 4 89 -14 30 -18 46 -21 84 -16 57 8 150 -14 231 -56 32
-16 88 -40 125 -54 87 -33 126 -57 200 -126 47 -43 74 -60 118 -73 135 -38
162 -46 176 -56 10 -6 15 -27 15 -68 1 -103 73 -218 172 -274 35 -20 53 -36
51 -46 -2 -9 -32 -40 -68 -68 -105 -85 -104 -120 4 -131 65 -7 72 -15 77 -88
l4 -50 -30 5 c-16 3 -75 5 -130 5 l-100 0 -20 -42 c-12 -24 -40 -63 -64 -87
-34 -34 -42 -49 -36 -65 9 -28 -7 -47 -67 -77 -117 -60 -65 -134 62 -89 23 8
73 15 111 15 66 0 69 1 95 35 14 19 30 33 34 30 5 -3 11 -23 15 -44 8 -49 24
-63 66 -59 51 5 58 28 26 93 -30 62 -31 64 -17 85 7 12 13 11 34 -10 15 -13
26 -29 26 -36 0 -18 24 -24 91 -24 44 0 71 -6 99 -22 l38 -23 47 34 c41 30 52
33 91 27 61 -8 75 -19 151 -116 94 -120 241 -287 257 -293 8 -3 45 -9 83 -12
86 -9 90 -3 62 87 -19 60 -20 73 -8 263 10 176 9 208 -5 268 -18 75 -52 149
-90 195 -32 37 -32 54 -1 100 14 20 25 42 25 48 0 6 13 36 29 66 l29 54 21
610 c11 335 22 654 23 709 l3 100 -70 0 -70 0 0 37 c0 20 -3 39 -7 44 -11 10
-66 7 -115 -6 -35 -10 -45 -10 -64 4 -27 18 -66 21 -105 6 -24 -9 -34 -6 -78
23 -86 57 -112 67 -200 76 -95 9 -149 34 -204 95 -30 34 -36 36 -92 36 -75 0
-95 10 -150 76 -33 39 -52 54 -71 54 -42 0 -120 -46 -204 -121 -44 -39 -97
-80 -117 -90 -20 -10 -51 -39 -68 -64 -17 -25 -34 -45 -38 -45 -31 0 -139 -23
-149 -32 -7 -6 -22 -30 -32 -53 -13 -30 -31 -49 -62 -66 -48 -27 -99 -95 -102
-136 -2 -23 -11 -32 -50 -51 -44 -21 -47 -25 -47 -61 0 -68 -36 -76 -150 -32
-50 19 -60 29 -101 94 -34 52 -51 93 -64 149 -26 117 -72 142 -110 60 -12 -26
-25 -42 -35 -40 -22 4 -47 63 -66 158 -25 127 -21 186 16 261 23 44 30 69 25
88 -3 14 -36 55 -73 89 l-67 64 29 21 c73 55 73 55 52 72 -26 19 -83 19 -160
-1 -77 -20 -188 -14 -226 14 -14 10 -39 40 -57 67 -18 26 -38 52 -45 56 -20
13 -188 9 -234 -5z"/>
<path d="M2153 6045 c-29 -20 -53 -96 -53 -166 0 -51 4 -62 36 -100 19 -23 44
-59 54 -79 25 -49 36 -57 98 -65 67 -9 82 3 82 62 0 72 -107 316 -152 347 -28
20 -38 20 -65 1z"/>
<path d="M4864 5770 c4 -28 9 -57 12 -65 8 -21 -16 -18 -46 5 -14 11 -31 20
-39 20 -26 0 -171 -74 -175 -90 -18 -66 -17 -70 16 -90 24 -14 51 -20 94 -20
69 0 77 -6 93 -67 13 -46 32 -58 77 -47 l27 7 -7 -77 -7 -77 78 -35 c43 -19
115 -54 160 -77 45 -22 86 -38 90 -34 6 7 -2 45 -23 108 -4 11 6 23 30 38 20
13 36 28 36 36 0 7 -27 23 -60 35 -46 17 -73 36 -112 79 -70 76 -86 105 -94
170 -11 94 -94 231 -140 231 -14 0 -16 -7 -10 -50z"/>
<path d="M5587 5358 c-46 -50 -48 -55 -44 -97 3 -25 -1 -69 -9 -98 -8 -30 -14
-61 -14 -68 0 -23 39 -18 108 15 35 17 69 30 76 30 7 0 20 -16 29 -35 9 -19
23 -35 31 -35 7 0 31 28 52 63 36 58 39 67 38 134 -2 116 -31 143 -152 143
l-66 0 -49 -52z"/>
<path d="M13530 5190 c-9 -6 -11 -29 -8 -80 6 -85 20 -106 100 -163 62 -44
144 -61 173 -37 10 8 37 10 92 6 110 -9 149 -8 226 6 62 11 69 10 90 -9 12
-11 45 -35 72 -53 28 -19 67 -48 89 -66 26 -23 57 -37 95 -44 31 -6 63 -13 72
-16 35 -10 50 23 47 105 l-3 76 -37 18 c-37 17 -38 19 -38 71 0 71 -16 87
-114 120 -78 27 -79 27 -116 8 l-38 -18 -63 38 c-34 21 -71 38 -81 38 -10 0
-57 -13 -105 -30 -47 -16 -106 -30 -130 -30 -24 0 -54 -5 -65 -11 -17 -9 -31
-7 -72 14 -70 35 -171 66 -186 57z"/>
<path d="M12975 5084 c-41 -9 -91 -12 -156 -8 -67 5 -102 3 -118 -6 -25 -13
-25 -7 -5 -120 8 -48 56 -95 135 -135 37 -19 88 -53 114 -75 37 -32 54 -40 79
-38 26 2 35 11 56 51 26 49 47 63 153 101 31 12 47 23 47 35 0 24 -158 188
-193 201 -33 12 -33 12 -112 -6z"/>
<path d="M4933 4067 c-62 -66 -83 -113 -83 -184 0 -57 -19 -71 -73 -54 -72 22
-103 24 -133 8 -37 -20 -120 -104 -111 -113 4 -4 33 1 64 10 54 16 67 16 178
2 66 -8 145 -23 175 -32 82 -24 210 -74 210 -82 0 -4 -22 -20 -48 -37 -35 -23
-47 -36 -47 -55 0 -40 53 -52 259 -58 l179 -5 37 -33 c110 -100 334 -142 444
-83 27 14 56 19 118 19 46 0 114 7 153 15 100 21 116 20 228 -26 73 -29 126
-59 186 -105 47 -36 94 -66 105 -68 128 -24 273 -47 326 -52 36 -3 107 -19
158 -35 129 -40 198 -39 343 6 149 47 213 54 265 28 21 -11 53 -23 69 -27 35
-8 136 -66 249 -143 44 -29 84 -52 90 -50 30 10 16 64 -49 193 -65 129 -67
135 -61 186 4 29 8 69 9 88 l2 35 -45 -1 c-25 0 -93 -6 -151 -12 -60 -6 -158
-9 -227 -5 -112 6 -122 8 -122 25 0 11 -8 31 -19 44 -12 15 -21 49 -25 93 -9
92 -23 108 -107 121 -84 13 -147 35 -175 61 -24 23 -174 49 -234 42 -50 -6
-115 42 -130 97 -10 36 -33 60 -59 60 -28 0 -87 -70 -121 -146 -32 -69 -43
-83 -70 -93 -78 -27 -294 -7 -498 45 -158 40 -202 59 -202 86 0 38 -86 168
-112 168 -5 0 -21 -9 -35 -20 -21 -16 -41 -20 -108 -20 -89 0 -92 1 -178 77
-50 44 -85 43 -196 -7 -49 -22 -92 -40 -96 -40 -4 0 -28 19 -55 43 -42 37
-170 98 -206 97 -7 0 -38 -28 -71 -63z"/>
<path d="M11393 3234 c-43 -25 -51 -38 -33 -49 18 -11 11 -23 -19 -33 -15 -5
-38 -26 -50 -45 -26 -42 -89 -87 -122 -87 -19 0 -41 17 -83 65 -49 56 -62 65
-91 65 -33 0 -59 -22 -91 -76 -10 -17 -18 -15 -146 29 -105 37 -155 49 -222
54 l-87 6 -11 -31 c-10 -26 -16 -30 -37 -26 -38 7 -98 -46 -107 -94 -4 -20
-14 -49 -22 -64 -22 -37 -11 -45 78 -59 84 -12 125 -3 138 30 7 20 7 20 52 0
24 -11 60 -32 78 -46 30 -22 40 -25 85 -19 29 4 88 18 131 33 71 23 84 24 125
14 98 -26 105 -26 136 11 l28 33 96 -2 c53 -2 111 2 129 8 18 6 67 43 108 83
83 80 101 119 83 173 -19 59 -76 69 -146 27z"/>
<path d="M9570 3223 c-62 -9 -70 -13 -70 -36 0 -31 45 -94 80 -112 17 -9 30
-17 30 -19 0 -2 -16 -21 -35 -42 -41 -44 -56 -41 -86 17 -28 53 -37 59 -87 59
-26 0 -64 6 -86 14 -41 14 -32 17 -176 -54 -8 -4 -20 -17 -26 -29 -6 -12 -21
-32 -33 -45 -30 -32 -27 -61 10 -88 17 -13 35 -34 40 -47 9 -23 12 -23 82 -17
39 3 131 11 202 16 155 12 184 21 252 72 56 43 62 42 101 -4 28 -33 38 -34
120 -8 35 11 77 20 93 20 72 0 69 85 -7 207 -44 71 -44 71 -82 66 -27 -4 -42
-1 -51 11 -7 9 -22 16 -33 16 -20 0 -62 -36 -70 -60 -3 -11 -14 -7 -44 16 -43
35 -78 55 -91 53 -4 -1 -19 -3 -33 -6z"/>
<path d="M13050 3103 c-29 -11 -50 -36 -45 -53 4 -11 -1 -20 -12 -24 -10 -4
-128 -7 -263 -6 -153 1 -258 -2 -280 -9 -19 -6 -60 -11 -90 -11 -87 0 -93 -4
-131 -83 -40 -85 -49 -90 -191 -118 -69 -13 -122 -30 -163 -53 -33 -18 -86
-43 -117 -55 -31 -13 -59 -29 -62 -37 -3 -9 1 -31 9 -51 19 -45 19 -94 0 -140
-19 -45 -19 -97 0 -116 8 -9 31 -21 51 -27 35 -12 39 -10 95 28 55 38 63 41
109 35 43 -5 59 -1 113 25 65 32 82 49 237 224 l75 85 85 22 c47 11 97 30 112
41 35 26 47 25 148 -10 l85 -29 42 20 c23 11 59 37 80 58 21 21 80 68 131 105
86 63 112 90 112 114 0 8 -104 74 -112 71 -2 0 -10 -3 -18 -6z"/>
<path d="M10229 2772 c-25 -11 -80 -22 -122 -25 -77 -7 -197 -50 -197 -72 0
-6 25 -35 55 -65 l56 -55 91 0 91 0 76 -67 c42 -37 98 -85 124 -108 l48 -40
87 1 c109 0 153 14 163 52 6 24 0 36 -44 88 -69 82 -78 98 -72 135 7 39 -2 43
-114 51 l-83 6 5 48 c3 27 3 50 -1 53 -4 2 -32 7 -62 10 -41 4 -67 1 -101 -12z"/>
</g>
</svg>
