<?xml version="1.0" standalone="no"?>
<!DOCTYPE svg PUBLIC "-//W3C//DTD SVG 20010904//EN"
 "http://www.w3.org/TR/2001/REC-SVG-20010904/DTD/svg10.dtd">
<svg version="1.0" xmlns="http://www.w3.org/2000/svg"
 width="1732.000000pt" height="388.000000pt" viewBox="0 0 1732.000000 388.000000"
 preserveAspectRatio="xMidYMid meet">

<g transform="translate(0.000000,388.000000) scale(0.100000,-0.100000)"
fill="#000000" stroke="none">
<path d="M3546 3735 c-17 -13 -229 -15 -1620 -15 -881 0 -1618 -3 -1638 -6
l-38 -7 0 -1718 0 -1719 740 0 c651 0 740 2 740 15 0 8 -4 15 -9 15 -5 0 -14
14 -21 30 -7 17 -21 35 -31 40 -10 6 -26 24 -36 40 -9 17 -23 30 -29 30 -11 0
-20 14 -22 33 -2 12 -29 37 -41 37 -5 0 -20 19 -33 42 -13 22 -27 39 -32 37
-4 -2 -17 13 -27 33 -11 21 -31 45 -44 54 -14 9 -32 32 -41 50 -9 19 -23 34
-32 34 -8 0 -12 3 -8 7 3 4 -13 25 -37 47 -24 23 -52 55 -62 73 -10 18 -22 30
-26 27 -5 -3 -15 8 -23 24 -9 17 -32 48 -53 70 -21 23 -46 53 -56 67 -11 15
-21 24 -24 21 -3 -3 -13 9 -23 27 -9 17 -27 36 -38 42 -12 5 -22 15 -22 20 0
6 -9 21 -20 33 -11 12 -20 26 -20 32 0 6 -4 9 -10 5 -5 -3 -16 8 -25 24 -8 17
-25 35 -36 41 -11 7 -25 24 -30 40 -6 15 -19 30 -29 33 -11 3 -29 21 -41 41
-12 20 -30 41 -41 47 -11 6 -24 24 -30 40 -5 16 -14 29 -19 29 -5 0 -9 7 -9
15 0 8 -6 12 -14 9 -9 -4 -20 5 -30 23 -8 15 -29 44 -48 64 -43 46 -68 78 -68
85 0 6 290 294 296 294 7 0 34 27 34 34 0 2 27 32 61 65 58 58 79 72 79 52 0
-4 23 -32 51 -62 63 -67 108 -118 134 -152 11 -15 24 -27 30 -27 6 0 16 -14
23 -30 8 -17 20 -30 28 -30 8 0 23 -15 34 -32 27 -47 58 -85 111 -137 25 -25
54 -61 64 -78 11 -18 25 -33 32 -33 7 0 13 -5 13 -11 0 -6 19 -30 43 -54 54
-55 67 -72 67 -85 0 -5 6 -10 14 -10 8 0 18 -9 21 -20 4 -11 24 -34 46 -52 21
-17 41 -38 44 -47 3 -9 21 -33 39 -55 28 -32 39 -38 59 -32 14 3 28 14 31 24
4 10 14 27 24 38 9 10 28 39 41 64 13 25 29 50 35 55 6 6 24 28 40 50 17 22
33 42 36 45 3 3 11 17 17 33 7 15 17 27 23 27 5 0 10 7 10 15 0 8 5 15 10 15
6 0 10 5 10 11 0 6 6 17 13 24 30 34 37 45 37 56 0 7 3 9 7 5 4 -3 15 12 25
34 10 22 22 40 27 40 4 0 19 20 32 44 13 25 26 43 29 41 4 -2 14 11 23 30 9
19 21 35 26 35 5 0 12 9 16 19 3 11 21 39 40 63 19 23 35 48 35 54 0 15 36 55
43 48 3 -3 8 4 12 15 3 12 11 21 16 21 5 0 9 6 9 14 0 8 11 28 25 44 14 17 25
35 25 40 0 6 14 24 30 40 17 17 30 33 30 37 0 3 11 18 25 33 14 15 25 32 25
39 0 7 8 21 18 31 9 10 30 36 46 57 17 22 32 42 35 45 4 3 12 17 19 31 8 15
25 38 38 52 13 14 24 31 24 37 0 6 5 8 12 4 6 -4 8 -3 4 4 -3 6 1 17 9 25 8 9
15 19 15 24 0 4 13 22 28 40 16 17 64 85 108 150 43 65 91 131 106 148 16 16
28 36 28 44 0 7 12 28 28 47 62 76 76 95 88 123 7 16 21 34 32 40 11 6 22 21
26 35 3 13 17 31 31 40 14 9 25 21 25 27 0 6 12 27 28 47 15 20 30 41 34 47 4
5 19 24 33 41 13 17 22 34 19 36 -2 3 11 22 31 42 19 20 35 40 35 44 0 5 10
19 22 32 40 43 27 78 -16 45z"/>
<path d="M4031 3569 c-14 -11 -33 -18 -43 -16 -17 5 -18 -7 -18 -199 l0 -204
35 0 35 0 2 165 3 166 62 -163 c59 -156 62 -163 89 -163 26 0 30 7 88 160 l61
160 8 -70 c5 -38 7 -112 4 -162 l-4 -93 33 0 34 0 0 220 c0 121 -2 220 -5 220
-2 0 -21 -12 -42 -26 -43 -29 -60 -57 -109 -187 -19 -50 -42 -100 -51 -110
-16 -17 -19 -10 -59 100 -65 183 -78 216 -89 219 -6 2 -21 -6 -34 -17z"/>
<path d="M5568 3557 c-33 -28 -43 -50 -89 -187 -34 -102 -59 -163 -75 -178
-34 -32 -30 -42 16 -42 39 0 40 0 55 55 l16 55 84 0 84 0 17 -55 c17 -54 18
-55 57 -55 27 0 38 4 35 13 -110 314 -152 427 -157 427 -3 0 -23 -15 -43 -33z
m71 -221 c26 -31 -49 -48 -100 -24 l-26 12 31 93 31 94 27 -82 c15 -45 32 -87
37 -93z"/>
<path d="M8202 3579 c-62 -11 -107 -32 -125 -59 -6 -11 -17 -20 -24 -20 -21 0
-15 -54 10 -90 12 -18 45 -45 74 -59 64 -33 88 -54 104 -92 11 -27 10 -33 -8
-50 -22 -23 -62 -27 -140 -15 -49 8 -53 7 -53 -12 0 -16 10 -22 50 -32 150
-36 263 57 206 169 -14 26 -85 81 -105 81 -16 0 -68 49 -74 69 -13 52 68 86
137 57 l36 -15 0 40 c0 44 2 43 -88 28z"/>
<path d="M13260 3569 c-7 -12 -17 -18 -27 -15 -13 5 -14 -15 -12 -165 4 -192
5 -191 -72 -204 -30 -5 -39 -11 -37 -23 4 -24 60 -27 103 -6 65 30 75 67 75
264 0 167 -6 195 -30 149z"/>
<path d="M14485 3581 c-6 -5 -44 -12 -85 -15 -41 -3 -83 -6 -92 -8 -17 -2 -18
-20 -18 -205 l0 -203 120 0 120 0 0 30 c0 30 -21 42 -35 20 -9 -15 -97 -12
-117 4 -14 10 -18 28 -18 75 l0 61 75 0 75 0 0 31 c0 28 -2 31 -22 24 -53 -16
-70 -17 -98 -5 -29 12 -30 15 -30 76 l0 64 80 0 80 0 0 30 c0 30 -16 39 -35
21z"/>
<path d="M15755 3579 c-4 -6 -14 -8 -23 -4 -8 3 -40 1 -70 -6 -61 -12 -116
-55 -147 -113 -11 -20 -23 -36 -27 -36 -5 0 -8 -29 -8 -65 0 -142 97 -229 234
-210 69 9 86 20 86 55 0 35 -3 37 -30 10 -14 -14 -33 -20 -67 -20 -41 0 -54 5
-86 35 -91 84 -90 221 3 283 29 20 44 23 90 19 30 -2 63 -8 73 -12 14 -6 17
-2 17 28 0 23 -6 37 -16 41 -21 8 -22 8 -29 -5z"/>
<path d="M17007 3579 c-10 -6 -75 -12 -145 -12 -112 -2 -127 -4 -130 -19 -3
-16 5 -18 57 -18 l60 0 6 -55 c4 -30 6 -116 3 -190 l-4 -135 33 0 33 0 2 188
3 187 58 3 c56 3 57 4 57 32 0 32 -5 35 -33 19z"/>
<path d="M9410 3569 c-131 -11 -120 10 -120 -220 l0 -199 35 0 35 0 0 80 0 80
48 0 c93 0 155 54 156 138 2 100 -38 131 -154 121z m54 -60 c14 -11 26 -29 26
-40 0 -11 5 -29 10 -40 16 -28 -36 -79 -80 -79 -49 0 -60 18 -60 104 l0 76 39
0 c24 0 48 -8 65 -21z"/>
<path d="M10660 3570 c-132 -12 -120 9 -120 -221 l0 -199 35 0 35 0 0 90 c0
83 2 90 20 90 29 0 75 -47 113 -115 31 -58 34 -60 76 -63 l43 -3 -29 51 c-15
28 -45 74 -67 102 -28 38 -35 53 -25 57 8 2 26 17 41 32 23 23 28 36 28 79 0
44 -4 56 -29 81 -16 16 -33 28 -38 27 -4 -1 -42 -4 -83 -8z m50 -50 c25 -13
44 -83 31 -109 -16 -29 -59 -53 -83 -45 -39 12 -48 30 -48 98 l0 66 41 0 c22
0 49 -5 59 -10z"/>
<path d="M11947 3568 c-55 -12 -84 -34 -129 -102 -39 -59 -40 -63 -35 -129 8
-124 79 -192 198 -192 55 0 72 4 108 28 105 70 125 261 38 362 -30 35 -38 38
-88 40 -30 1 -71 -2 -92 -7z m101 -54 c34 -23 52 -66 62 -150 11 -85 2 -116
-46 -153 -95 -75 -230 46 -210 188 7 52 37 104 68 119 34 16 100 14 126 -4z"/>
<path d="M6758 3557 l-28 -11 0 -198 0 -198 83 0 c102 0 148 12 193 52 54 47
74 96 74 175 0 79 -25 142 -65 169 -32 21 -214 29 -257 11z m171 -45 c52 -26
71 -60 82 -142 8 -63 6 -78 -9 -104 -33 -58 -142 -94 -184 -62 -16 12 -18 32
-18 170 l0 156 48 0 c26 0 62 -8 81 -18z"/>
<path d="M11255 2824 c-16 -8 -33 -21 -38 -27 -4 -7 -7 -111 -5 -232 1 -125
-2 -227 -8 -236 -5 -8 -18 -19 -29 -23 -46 -17 -620 -354 -657 -385 -22 -19
-61 -66 -87 -105 l-46 -71 0 -515 0 -515 29 -59 c48 -98 74 -119 346 -275 80
-46 201 -116 270 -156 69 -40 142 -82 163 -94 69 -39 149 -21 187 42 19 30 20
53 20 472 0 509 6 478 -101 537 -59 33 -86 48 -171 97 -18 10 -58 33 -88 51
-68 40 -89 53 -215 124 -113 65 -146 92 -183 155 -21 35 -26 58 -26 110 -1
108 47 171 192 252 26 14 64 36 85 48 20 11 54 31 75 42 20 12 51 30 67 40 79
47 127 69 150 69 25 0 25 -1 26 -87 0 -49 0 -125 -1 -170 l-1 -82 41 -30 c23
-17 52 -33 64 -37 11 -3 28 -12 36 -19 8 -7 42 -27 75 -44 33 -18 89 -50 124
-72 34 -21 66 -39 70 -39 3 0 17 -9 31 -20 33 -25 76 -26 90 -1 6 12 10 131
10 315 0 336 -6 317 83 267 96 -53 132 -73 142 -81 6 -4 33 -20 60 -36 28 -15
64 -35 80 -45 17 -10 47 -28 68 -39 55 -30 116 -88 138 -132 11 -21 22 -64 25
-97 17 -161 0 -177 -541 -486 -91 -52 -184 -109 -205 -127 l-40 -33 0 -438 c0
-488 -1 -479 67 -514 49 -25 90 -20 156 19 29 17 75 43 102 58 58 31 232 132
290 167 22 13 90 54 150 89 174 103 229 171 254 317 12 72 13 621 1 862 -8
153 -30 216 -102 287 -38 38 -69 59 -218 141 -19 10 -39 23 -45 27 -10 8 -213
125 -345 200 -117 66 -107 50 -117 173 l-8 110 -35 20 c-19 11 -52 29 -72 41
-20 12 -76 43 -125 70 -48 27 -115 65 -148 86 -33 20 -65 39 -71 43 -6 3 -24
-1 -39 -9z"/>
<path d="M3644 2568 c-14 -29 -42 -76 -62 -104 -34 -46 -100 -139 -177 -249
-16 -23 -61 -86 -100 -140 -38 -54 -100 -141 -137 -194 -68 -97 -106 -150
-162 -229 -17 -24 -44 -63 -61 -87 -43 -62 -216 -306 -307 -433 -42 -59 -86
-120 -98 -137 -51 -73 -271 -384 -298 -420 -15 -22 -61 -87 -102 -144 -40 -57
-85 -111 -101 -120 -73 -41 -79 -41 801 -41 l840 0 0 1175 c0 646 -2 1175 -6
1175 -3 0 -16 -24 -30 -52z"/>
<path d="M5705 2480 c-4 -7 -293 -10 -833 -10 -455 0 -844 -3 -864 -6 l-38 -7
0 -1073 0 -1074 885 0 885 0 0 130 c0 104 -3 130 -14 130 -7 0 -19 -7 -26 -15
-11 -13 -97 -15 -661 -15 -562 0 -650 2 -663 15 -8 8 -19 15 -25 15 -8 0 -10
119 -9 402 l3 403 653 3 652 2 0 124 c0 69 -4 127 -9 130 -4 3 -17 -1 -27 -9
-16 -12 -114 -14 -622 -15 -538 0 -605 2 -627 16 l-25 16 0 294 0 294 700 0
700 0 0 130 c0 107 -3 130 -14 130 -8 0 -18 -4 -21 -10z"/>
<path d="M6283 2479 c-7 -7 -77 -9 -206 -7 -173 3 -194 1 -183 -12 99 -117
833 -1041 844 -1062 14 -28 13 -31 -25 -76 -21 -26 -207 -251 -413 -501 -231
-279 -388 -462 -412 -477 -21 -13 -38 -26 -38 -29 0 -3 91 -5 203 -5 l202 0
350 436 c266 331 352 432 360 421 5 -7 160 -203 344 -435 l335 -422 218 0 219
0 -103 127 c-58 71 -252 312 -433 538 -180 226 -334 417 -341 425 -12 14 46
88 411 530 234 283 429 516 433 518 5 1 223 -479 486 -1068 l479 -1070 206 0
206 1 483 1082 c265 595 482 1086 482 1091 0 4 -10 5 -22 1 -13 -5 -91 -11
-175 -14 -117 -5 -156 -10 -167 -21 -9 -9 -184 -405 -390 -880 -206 -476 -382
-869 -390 -875 -8 -5 -17 -7 -19 -5 -3 3 -179 408 -392 900 -213 492 -389 897
-392 900 -2 2 -12 -1 -23 -8 -12 -7 -75 -11 -187 -11 -332 1 -517 -3 -538 -11
-28 -11 -69 -59 -403 -477 -201 -251 -288 -353 -302 -353 -11 0 -20 4 -20 9 0
7 -558 719 -646 824 -26 31 -26 31 -41 16z"/>
<path d="M14945 2480 c-4 -7 -378 -10 -1088 -10 -595 0 -1099 -3 -1119 -6
l-38 -7 0 -113 0 -114 475 0 475 0 0 -960 0 -960 190 0 190 0 0 960 0 960 475
0 475 0 0 130 c0 107 -3 130 -14 130 -8 0 -18 -4 -21 -10z"/>
<path d="M16965 2480 c-4 -7 -293 -10 -833 -10 -455 0 -844 -3 -864 -6 l-38
-7 0 -1073 0 -1074 885 0 885 0 0 130 c0 104 -3 130 -14 130 -7 0 -19 -7 -26
-15 -11 -13 -97 -15 -661 -15 -562 0 -650 2 -663 15 -8 8 -19 15 -25 15 -8 0
-10 119 -9 402 l3 403 653 3 652 2 0 124 c0 69 -4 127 -9 130 -4 3 -17 -1 -27
-9 -16 -12 -114 -14 -622 -15 -538 0 -605 2 -627 16 l-25 16 0 294 0 294 700
0 700 0 0 130 c0 107 -3 130 -14 130 -8 0 -18 -4 -21 -10z"/>
</g>
</svg>
